<?xml version="1.0" encoding="utf-8"?>
<!-- Generator: Adobe Illustrator 21.1.0, SVG Export Plug-In . SVG Version: 6.00 Build 0)  -->
<!DOCTYPE svg PUBLIC "-//W3C//DTD SVG 1.1//EN" "http://www.w3.org/Graphics/SVG/1.1/DTD/svg11.dtd">
<svg version="1.1" id="Layer_1" xmlns="http://www.w3.org/2000/svg" xmlns:xlink="http://www.w3.org/1999/xlink" x="0px" y="0px"
	 viewBox="0 0 80.3 21.2" style="enable-background:new 0 0 80.3 21.2;" xml:space="preserve">
<g>
	<path d="M0.8,11.6c0,0.2,0,0.3,0,0.5c0,0,0,0.1,0,0.2c0,0.1,0,0.1,0,0.1c0,0,0,0.1,0.1,0.1c0,0,0.1,0,0.1,0c0,0,0.1,0,0.1,0
		c0,0,0.1,0,0.1,0c0.1,0,0.2-0.1,0.2-0.1c0,0.1,0.1,0.2,0.1,0.2c-0.5,0.2-0.9,0.5-1.4,0.7c0-0.1-0.1-0.2-0.1-0.2c0,0,0,0,0.1,0
		c0,0,0.1-0.1,0.1-0.1c0,0,0.1-0.1,0.1-0.1c0,0,0-0.1,0-0.2c0-0.1,0-0.1,0-0.2c-0.1-1.1-0.1-2.2-0.1-3.3C0.5,9,0.7,8.9,1,8.8
		c0.8,0.7,1.7,1.4,2.5,2.2C3.5,11,3.6,11,3.6,11.1c0,0,0.1,0,0.1,0.1c0,0,0.1,0,0.1,0c0,0,0.1,0,0.1,0c0,0,0.1,0,0.1,0
		c0,0.1,0.1,0.2,0.1,0.2c-0.6,0.3-1.2,0.6-1.8,0.9c0-0.1-0.1-0.2-0.1-0.2c0.1,0,0.1-0.1,0.2-0.1c0,0,0.1,0,0.1-0.1c0,0,0,0,0.1-0.1
		c0,0,0-0.1,0-0.1c0,0,0-0.1,0-0.1c0,0,0-0.1-0.1-0.1c0,0-0.1-0.1-0.1-0.1c-0.1-0.1-0.3-0.2-0.4-0.4C1.6,11.2,1.2,11.4,0.8,11.6z
		 M1.2,10.1c0,0-0.1-0.1-0.1-0.1c0,0-0.1-0.1-0.1-0.1c-0.1,0-0.1-0.1-0.1-0.1c0-0.1-0.1-0.1-0.1-0.1c0,0.1,0,0.1,0,0.2
		c0,0.1,0,0.1,0,0.2c0,0.1,0,0.1,0,0.2c0,0.1,0,0.1,0,0.2c0,0.3,0,0.6,0.1,0.9c0.4-0.2,0.7-0.4,1.1-0.6C1.6,10.5,1.4,10.3,1.2,10.1z
		"/>
	<path d="M8.9,6.4C9,6.5,9,6.6,9,6.7c0,0.1,0,0.2-0.1,0.3c0,0.1-0.1,0.2-0.2,0.2C8.6,7.3,8.6,7.4,8.5,7.4c0,0,0,0,0,0
		c0.1,0,0.3,0,0.4,0c0.1,0,0.2,0,0.4,0.1c0.1,0,0.2,0.1,0.3,0.2C9.6,7.8,9.6,7.9,9.7,8c0.1,0.3,0.1,0.6-0.1,0.9
		C9.3,9.1,8.9,9.3,8.4,9.5C7.8,9.8,7.2,10,6.6,10.3c0-0.1-0.1-0.2-0.1-0.3c0.1,0,0.2-0.1,0.2-0.1c0,0,0.1,0,0.1-0.1
		c0,0,0.1,0,0.1-0.1c0,0,0-0.1,0-0.1s0-0.1,0-0.2C6.6,8.7,6.3,8,6,7.2c0-0.1-0.1-0.1-0.1-0.1C5.8,7,5.8,7,5.8,7c0,0-0.1,0-0.1,0
		c0,0-0.1,0-0.1,0c-0.1,0-0.2,0.1-0.2,0.1c0-0.1-0.1-0.2-0.1-0.2c0.6-0.2,1.1-0.5,1.7-0.7c0.6-0.2,1-0.3,1.3-0.3
		C8.6,6,8.8,6.1,8.9,6.4z M7.3,7.8c0.1,0,0.1-0.1,0.2-0.1c0.1-0.1,0.2-0.1,0.3-0.2C7.9,7.5,7.9,7.4,8,7.3c0-0.1,0-0.1,0-0.2
		C8,7,8,6.9,7.9,6.8c0-0.1-0.1-0.2-0.1-0.3C7.7,6.5,7.7,6.4,7.6,6.4c-0.1,0-0.2,0-0.3,0c-0.1,0-0.2,0-0.3,0.1
		c-0.1,0-0.1,0.1-0.2,0.1C6.9,7,7.1,7.4,7.3,7.8z M7.9,9.4c0.1,0,0.2-0.1,0.4-0.1c0.1,0,0.2-0.1,0.3-0.2C8.7,9,8.7,9,8.8,8.9
		c0-0.1,0-0.2,0-0.3c0-0.1,0-0.2-0.1-0.3c0-0.1-0.1-0.2-0.1-0.3C8.5,8,8.4,7.9,8.4,7.9c-0.1,0-0.2-0.1-0.3,0c-0.1,0-0.2,0-0.3,0.1
		C7.6,8,7.5,8,7.4,8.1C7.5,8.5,7.7,9,7.9,9.4z"/>
	<path d="M14.8,6.9c0.1,0,0.3-0.1,0.4-0.2c0.1-0.1,0.2-0.1,0.3-0.2c0.1-0.1,0.1-0.1,0.2-0.2c0-0.1,0.1-0.1,0.1-0.2
		c0,0,0.1,0,0.1,0.1c0,0,0.1,0.1,0.1,0.1c0,0.1,0,0.1,0,0.2c0,0.1-0.1,0.2-0.2,0.3c-0.1,0.1-0.2,0.2-0.4,0.3
		c-0.2,0.1-0.4,0.2-0.6,0.2c-0.3,0.1-0.6,0.1-0.9,0.1c-0.3,0-0.5-0.1-0.7-0.2c-0.2-0.1-0.4-0.3-0.6-0.4c-0.2-0.2-0.3-0.4-0.4-0.7
		c-0.1-0.3-0.1-0.5-0.1-0.8c0-0.2,0.1-0.5,0.2-0.7c0.1-0.2,0.3-0.4,0.5-0.6c0.2-0.2,0.5-0.3,0.9-0.4c0.2-0.1,0.4-0.1,0.6-0.1
		c0.2,0,0.3,0,0.5,0c0.1,0,0.2,0.1,0.3,0.1c0.1,0.1,0.1,0.1,0.1,0.2c0,0.1,0,0.1,0,0.2c0,0.1-0.1,0.1-0.1,0.2
		c-0.1,0.1-0.1,0.1-0.2,0.2c-0.1,0-0.2,0.1-0.3,0.1c0-0.1-0.1-0.2-0.1-0.2c0-0.1-0.1-0.1-0.2-0.2c-0.1-0.1-0.2-0.1-0.3-0.1
		c-0.1,0-0.2,0-0.3,0c-0.2,0.1-0.3,0.1-0.4,0.2c-0.1,0.1-0.2,0.2-0.2,0.4c0,0.2,0,0.3,0,0.5c0,0.2,0.1,0.4,0.1,0.6
		c0.1,0.2,0.2,0.4,0.3,0.6c0.1,0.2,0.2,0.3,0.3,0.4C14,7,14.1,7,14.3,7C14.4,7,14.6,7,14.8,6.9z"/>
	<path d="M22.4,3.5c0.1,0.3,0.1,0.5,0,0.8c0,0.2-0.1,0.5-0.3,0.7c-0.1,0.2-0.3,0.4-0.6,0.5c-0.2,0.1-0.5,0.3-0.9,0.3
		c-0.6,0.1-1.3,0.3-1.9,0.5c0-0.1,0-0.2-0.1-0.3c0.1,0,0.2,0,0.2-0.1c0,0,0.1,0,0.1,0c0,0,0.1,0,0.1-0.1c0,0,0-0.1,0-0.1
		c0,0,0-0.1,0-0.2c-0.2-0.8-0.4-1.6-0.6-2.4c0-0.1,0-0.1-0.1-0.2c0,0-0.1-0.1-0.1-0.1c0,0-0.1,0-0.1,0c0,0-0.1,0-0.1,0
		c-0.1,0-0.2,0-0.3,0.1c0-0.1,0-0.2-0.1-0.3c0.7-0.2,1.3-0.3,2-0.5c0.3-0.1,0.6-0.1,0.9-0.1c0.3,0,0.5,0.1,0.7,0.2
		c0.2,0.1,0.4,0.3,0.5,0.5C22.3,2.9,22.4,3.2,22.4,3.5z M21.4,3.7c-0.1-0.5-0.3-0.8-0.5-1c-0.3-0.2-0.6-0.2-1-0.1
		c-0.1,0-0.2,0.1-0.3,0.1c0.2,1,0.5,2,0.7,3c0.1,0,0.2-0.1,0.3-0.1c0.2,0,0.4-0.1,0.5-0.2c0.1-0.1,0.2-0.2,0.3-0.4
		c0.1-0.2,0.1-0.3,0.1-0.5C21.5,4.1,21.5,3.9,21.4,3.7z"/>
	<path d="M27.1,4.3c0.4-0.1,0.8-0.1,1.2-0.2c0.1,0,0.1,0,0.1,0c0,0,0.1-0.1,0.1-0.1c0,0,0-0.1,0.1-0.1c0,0,0-0.1,0-0.2
		c0-0.1,0-0.2,0-0.2c0.1,0,0.3,0,0.4-0.1c0,0.3,0,0.6,0.1,0.9c-1.2,0.1-2.3,0.3-3.5,0.5c0-0.1,0-0.2,0-0.3c0.1,0,0.2,0,0.2,0
		c0,0,0.1,0,0.1,0c0,0,0.1,0,0.1-0.1c0,0,0-0.1,0-0.1c0,0,0-0.1,0-0.2c-0.1-0.8-0.3-1.6-0.4-2.4c0-0.1,0-0.1-0.1-0.2
		c0,0,0-0.1-0.1-0.1c0,0-0.1,0-0.1,0c0,0-0.1,0-0.1,0c-0.1,0-0.2,0-0.3,0c0-0.1,0-0.2,0-0.3c1.1-0.2,2.3-0.3,3.4-0.5
		c0,0.3,0.1,0.6,0.1,0.9c-0.1,0-0.3,0-0.4,0.1c0-0.1,0-0.2-0.1-0.2c0-0.1-0.1-0.2-0.2-0.3c-0.1-0.1-0.2-0.1-0.3-0.1
		c-0.3,0-0.7,0.1-1,0.1c0.1,0.4,0.1,0.8,0.2,1.3c0.5-0.1,1-0.1,1.4-0.2c0,0.1,0,0.2,0,0.3c-0.5,0.1-1,0.1-1.4,0.2
		C26.9,3.3,27,3.8,27.1,4.3z"/>
	<path d="M34.6,1.1c0-0.1,0-0.2,0-0.2c0-0.1-0.1-0.2-0.2-0.3c-0.1-0.1-0.2-0.1-0.3-0.1c-0.3,0-0.7,0-1,0.1c0,0.5,0.1,0.9,0.1,1.4
		c0.5,0,1-0.1,1.4-0.1c0,0.1,0,0.2,0,0.3c-0.5,0-1,0.1-1.4,0.1c0,0.3,0,0.7,0.1,1c0,0.1,0,0.1,0,0.2c0,0,0,0.1,0.1,0.1
		c0,0,0.1,0,0.1,0c0,0,0.1,0,0.1,0c0.1,0,0.2,0,0.4,0c0,0.1,0,0.2,0,0.3c-0.7,0-1.4,0.1-2.2,0.2c0-0.1,0-0.2,0-0.3
		c0.1,0,0.2,0,0.3,0c0,0,0.1,0,0.1,0c0,0,0.1,0,0.1,0c0,0,0-0.1,0.1-0.1c0,0,0-0.1,0-0.2c-0.1-0.8-0.1-1.7-0.2-2.5
		c0-0.1,0-0.1,0-0.2c0,0,0-0.1-0.1-0.1c0,0-0.1,0-0.1,0c0,0-0.1,0-0.1,0c-0.1,0-0.2,0-0.3,0c0-0.1,0-0.2,0-0.3
		c1.1-0.1,2.3-0.2,3.4-0.2C35,0.5,35,0.8,35,1.1C34.9,1.1,34.7,1.1,34.6,1.1z"/>
	<path d="M40.3,3.8c-0.4,0-0.7-0.1-1-0.1c-0.3-0.1-0.5-0.2-0.7-0.4c-0.2-0.2-0.3-0.4-0.4-0.6c-0.1-0.2-0.1-0.5-0.1-0.8
		c0-0.3,0-0.5,0.1-0.8c0.1-0.2,0.2-0.4,0.4-0.6c0.2-0.2,0.4-0.3,0.7-0.4C39.6,0,40,0,40.3,0c0.3,0,0.5,0,0.7,0.1
		c0.2,0,0.4,0.1,0.5,0.1c0.1,0.1,0.2,0.1,0.3,0.2c0.1,0.1,0.1,0.2,0.1,0.2c0,0.1,0,0.1-0.1,0.2c0,0.1-0.1,0.1-0.2,0.1
		C41.6,1,41.5,1,41.4,1c-0.1,0-0.2,0-0.3,0c0-0.1,0-0.2,0-0.3c0-0.1-0.1-0.2-0.1-0.2c-0.1-0.1-0.1-0.1-0.2-0.1
		c-0.1,0-0.2-0.1-0.3-0.1c-0.2,0-0.4,0-0.6,0.1c-0.2,0.1-0.3,0.2-0.4,0.3c-0.1,0.1-0.2,0.3-0.2,0.5c0,0.2-0.1,0.4-0.1,0.7
		c0,0.2,0,0.5,0.1,0.7c0,0.2,0.1,0.4,0.2,0.5c0.1,0.1,0.2,0.2,0.4,0.3c0.2,0.1,0.4,0.1,0.6,0.1c0.1,0,0.1,0,0.2,0c0.1,0,0.1,0,0.2,0
		c0-0.3,0-0.5,0-0.8c0-0.1,0-0.2-0.1-0.3c-0.1-0.1-0.2-0.1-0.3-0.1c0,0-0.1,0-0.1,0c0-0.1,0-0.2,0-0.3c0.6,0,1.3,0,1.9,0
		c0,0.1,0,0.2,0,0.3c0,0-0.1,0-0.1,0c-0.1,0-0.1,0-0.2,0c0,0-0.1,0-0.1,0.1c0,0-0.1,0.1-0.1,0.1c0,0,0,0.1,0,0.2c0,0.3,0,0.6,0,0.8
		c-0.2,0.1-0.5,0.1-0.7,0.2C40.8,3.7,40.5,3.8,40.3,3.8z"/>
	<path d="M47.3,4.1c0-0.1,0-0.2,0-0.3c0.1,0,0.2,0,0.3,0c0,0,0.1,0,0.1,0c0,0,0.1,0,0.1,0c0,0,0.1-0.1,0.1-0.1c0,0,0-0.1,0-0.2
		c0-0.4,0.1-0.8,0.1-1.1c-0.5-0.1-1.1-0.1-1.6-0.1c0,0.4-0.1,0.8-0.1,1.1c0,0.1,0,0.1,0,0.2c0,0,0,0.1,0.1,0.1c0,0,0.1,0,0.1,0.1
		c0,0,0.1,0,0.1,0c0.1,0,0.2,0,0.3,0c0,0.1,0,0.2,0,0.3c-0.7-0.1-1.4-0.1-2-0.2c0-0.1,0-0.2,0-0.3c0.1,0,0.2,0,0.3,0
		c0,0,0.1,0,0.1,0c0,0,0.1,0,0.1,0c0,0,0.1-0.1,0.1-0.1c0,0,0-0.1,0-0.2c0.1-0.8,0.1-1.6,0.2-2.5c0-0.1,0-0.1,0-0.2
		c0,0,0-0.1-0.1-0.1c0,0-0.1,0-0.1-0.1c0,0-0.1,0-0.1,0c-0.1,0-0.2,0-0.3,0c0-0.1,0-0.2,0-0.3c0.7,0,1.4,0.1,2.1,0.2
		c0,0.1,0,0.2,0,0.3c-0.1,0-0.2,0-0.3,0c0,0-0.1,0-0.1,0c0,0-0.1,0-0.1,0c0,0-0.1,0.1-0.1,0.1c0,0,0,0.1,0,0.2c0,0.3-0.1,0.7-0.1,1
		C47,2,47.6,2,48.1,2.1c0-0.3,0.1-0.7,0.1-1c0-0.1,0-0.1,0-0.2c0,0,0-0.1-0.1-0.1c0,0-0.1,0-0.1-0.1c0,0-0.1,0-0.1,0
		c-0.1,0-0.2,0-0.3,0c0-0.1,0-0.2,0-0.3c0.7,0.1,1.4,0.1,2.1,0.2c0,0.1,0,0.2,0,0.3c-0.1,0-0.2,0-0.3,0c0,0-0.1,0-0.1,0
		c0,0-0.1,0-0.1,0c0,0-0.1,0.1-0.1,0.1c0,0,0,0.1,0,0.2C49.1,2,49,2.8,48.9,3.7c0,0.1,0,0.1,0,0.2c0,0,0,0.1,0.1,0.1
		C49,3.9,49,4,49,4c0,0,0.1,0,0.1,0c0.1,0,0.2,0,0.2,0c0,0.1,0,0.2,0,0.3C48.7,4.2,48,4.1,47.3,4.1z"/>
	<path d="M52.1,4.7c0-0.1,0-0.2,0-0.3c0.1,0,0.2,0,0.2,0c0,0,0.1,0,0.1,0c0,0,0.1,0,0.1,0c0,0,0.1,0,0.1-0.1c0,0,0-0.1,0.1-0.2
		c0.1-0.8,0.3-1.6,0.4-2.4c0-0.1,0-0.1,0-0.2c0,0,0-0.1,0-0.1c0,0-0.1,0-0.1-0.1c0,0-0.1,0-0.1,0c-0.1,0-0.2,0-0.3,0
		c0-0.1,0-0.2,0-0.3c0.7,0.1,1.4,0.2,2.1,0.3c0,0.1,0,0.2,0,0.3c-0.1,0-0.2,0-0.3,0c0,0-0.1,0-0.1,0c0,0-0.1,0-0.1,0
		c0,0-0.1,0-0.1,0.1c0,0,0,0.1-0.1,0.2c-0.1,0.8-0.3,1.6-0.4,2.4c0,0.1,0,0.1,0,0.2c0,0,0,0.1,0,0.1c0,0,0.1,0,0.1,0.1
		c0,0,0.1,0,0.1,0c0.1,0,0.2,0,0.2,0c0,0.1,0,0.2,0,0.3C53.4,4.9,52.7,4.8,52.1,4.7z"/>
	<path d="M59.4,2.6c-0.1,0-0.2,0-0.3-0.1c0,0-0.1,0-0.1,0c0,0-0.1,0-0.1,0c0,0-0.1,0-0.1,0.1c0,0,0,0.1-0.1,0.2c-0.2,1-0.5,2-0.7,3
		C58.1,6,58,6.1,58,6.2c-0.1,0.1-0.1,0.2-0.2,0.3c-0.1,0.1-0.2,0.1-0.3,0.2c-0.1,0-0.2,0.1-0.3,0.1c-0.1,0-0.2,0-0.4,0
		c-0.1,0-0.3,0-0.4-0.1c-0.1,0-0.1,0-0.2,0c0-0.1,0-0.2,0.1-0.3c0,0,0.1,0,0.1,0c0.1,0,0.2,0,0.3,0c0.1,0,0.2,0,0.3-0.1
		C56.9,6.2,57,6.1,57.1,6c0.1-0.1,0.1-0.2,0.2-0.4c0.2-1,0.4-2,0.6-3c0-0.1,0-0.1,0-0.2c0,0,0-0.1,0-0.1c0,0-0.1,0-0.1-0.1
		c0,0-0.1,0-0.1,0c-0.1,0-0.2,0-0.3-0.1c0-0.1,0-0.2,0.1-0.3c0.7,0.1,1.4,0.3,2.1,0.5C59.5,2.4,59.5,2.5,59.4,2.6z"/>
	<path d="M64.3,4.6c0.1,0,0.1-0.1,0.2-0.1c0.1,0,0.1-0.1,0.1-0.1c0,0,0.1-0.1,0.1-0.1c0,0,0-0.1,0-0.1c0-0.1,0-0.1,0-0.1
		c0,0-0.1-0.1-0.3-0.1c0-0.1,0.1-0.2,0.1-0.3c0.5,0.2,1.1,0.3,1.6,0.5c0,0.1-0.1,0.2-0.1,0.3c-0.1,0-0.2,0-0.2,0c-0.1,0-0.2,0-0.2,0
		c-0.1,0-0.2,0-0.2,0.1c-0.1,0-0.2,0.1-0.3,0.1c-0.3,0.2-0.7,0.3-1,0.5c0.2,0.6,0.4,1.2,0.6,1.8c0,0.1,0.1,0.2,0.1,0.2
		C65,7.2,65,7.2,65,7.3c0,0,0.1,0.1,0.1,0.1c0.1,0,0.1,0.1,0.2,0.1c0,0,0,0,0,0c0,0.1-0.1,0.2-0.1,0.3c-0.1,0-0.2-0.1-0.3-0.1
		c-0.1,0-0.3-0.1-0.4-0.1c-0.1,0-0.2-0.1-0.3-0.1c-0.1,0-0.1-0.1-0.2-0.1c-0.1,0-0.1-0.1-0.1-0.1c0,0-0.1-0.1-0.1-0.2
		c0-0.1,0-0.1-0.1-0.2c-0.1-0.5-0.3-0.9-0.5-1.4c-0.1,0-0.2,0.1-0.3,0.1c-0.1,0.3-0.2,0.6-0.2,0.8c0,0.1,0,0.1,0,0.2
		c0,0,0,0.1,0,0.1c0,0,0,0.1,0.1,0.1c0,0,0.1,0,0.1,0c0.1,0,0.2,0,0.2,0.1c0,0.1-0.1,0.2-0.1,0.3c-0.7-0.2-1.3-0.4-2-0.6
		c0-0.1,0-0.2,0.1-0.3c0.1,0,0.2,0,0.2,0.1c0,0,0.1,0,0.1,0c0,0,0.1,0,0.1,0c0,0,0.1,0,0.1-0.1c0,0,0-0.1,0.1-0.1
		c0.2-0.8,0.4-1.6,0.7-2.4c0-0.1,0-0.1,0-0.2c0,0,0-0.1,0-0.1c0,0-0.1-0.1-0.1-0.1c0,0-0.1,0-0.1,0c-0.1,0-0.2,0-0.3-0.1
		c0-0.1,0-0.2,0.1-0.3c0.7,0.2,1.4,0.4,2.1,0.6c0,0.1-0.1,0.2-0.1,0.3c-0.1,0-0.2,0-0.3-0.1c0,0-0.1,0-0.1,0c0,0-0.1,0-0.1,0
		c0,0-0.1,0-0.1,0.1c0,0-0.1,0.1-0.1,0.2c-0.1,0.4-0.2,0.8-0.3,1.2C63.6,5,64,4.8,64.3,4.6z"/>
	<path d="M67.7,8.6c0-0.1,0.1-0.2,0.1-0.3c0.1,0,0.2,0.1,0.2,0.1c0,0,0.1,0,0.1,0c0,0,0.1,0,0.1,0c0,0,0.1,0,0.1-0.1
		c0,0,0.1-0.1,0.1-0.2c0.3-0.8,0.6-1.5,0.8-2.3c0-0.1,0-0.1,0-0.2c0,0,0-0.1,0-0.1c0,0,0-0.1-0.1-0.1c0,0-0.1,0-0.1-0.1
		c-0.1,0-0.2-0.1-0.2-0.1c0-0.1,0.1-0.2,0.1-0.3c0.7,0.2,1.4,0.5,2,0.7C71,6,70.9,6,70.9,6.1c-0.1,0-0.2-0.1-0.2-0.1
		c0,0-0.1,0-0.1,0c0,0-0.1,0-0.1,0c0,0-0.1,0-0.1,0.1c0,0-0.1,0.1-0.1,0.1c-0.3,0.9-0.6,1.7-1,2.6c0.4,0.1,0.7,0.3,1.1,0.4
		c0.1,0.1,0.2,0.1,0.4,0c0.1,0,0.2-0.1,0.3-0.2c0.1-0.1,0.2-0.2,0.2-0.3c0.1,0,0.2,0.1,0.3,0.1c-0.2,0.3-0.3,0.7-0.5,1
		C69.9,9.4,68.8,9,67.7,8.6z"/>
	<path d="M76.8,12.4c0-0.1,0.1-0.2,0.1-0.2c0,0,0,0,0.1,0c0.1,0,0.1,0,0.2,0.1c0,0,0.1,0,0.1,0c0,0,0.1,0,0.1,0c0,0,0.1-0.1,0.1-0.1
		c0.4-0.8,0.8-1.6,1.2-2.3c-0.8,0.8-1.7,1.5-2.5,2.3c-0.1-0.1-0.2-0.1-0.4-0.2c0.1-1.1,0.1-2.3,0.1-3.4c-0.4,0.8-0.7,1.5-1.1,2.3
		c0,0.1,0,0.1,0,0.2c0,0,0,0.1,0,0.1c0,0,0.1,0.1,0.1,0.1c0,0,0.1,0.1,0.2,0.1c0,0,0,0,0,0c0,0.1-0.1,0.2-0.1,0.2
		c-0.5-0.2-0.9-0.4-1.4-0.6c0-0.1,0.1-0.2,0.1-0.2c0.1,0,0.2,0.1,0.2,0.1c0,0,0.1,0,0.1,0c0,0,0.1,0,0.1,0c0,0,0.1,0,0.1-0.1
		c0,0,0.1-0.1,0.1-0.1c0.3-0.8,0.7-1.5,1-2.3c0-0.1,0-0.1,0-0.2c0,0,0-0.1,0-0.1c0,0,0-0.1-0.1-0.1c0,0-0.1,0-0.1-0.1
		c-0.1,0-0.2-0.1-0.2-0.1c0-0.1,0.1-0.2,0.1-0.2c0.6,0.2,1.1,0.5,1.7,0.8c0,0.9-0.1,1.8-0.1,2.7c0.7-0.6,1.3-1.2,2-1.8
		c0.5,0.3,1.1,0.5,1.6,0.8c0,0.1-0.1,0.2-0.1,0.2c-0.1,0-0.2-0.1-0.2-0.1c0,0-0.1,0-0.1,0c0,0-0.1,0-0.1,0c0,0-0.1,0-0.1,0.1
		c0,0-0.1,0.1-0.1,0.1c-0.4,0.7-0.7,1.5-1.1,2.2c0,0.1-0.1,0.1-0.1,0.2c0,0,0,0.1,0,0.1c0,0,0,0.1,0.1,0.1c0,0,0.1,0,0.1,0.1
		c0.1,0,0.2,0.1,0.2,0.1c0,0.1-0.1,0.2-0.1,0.2C78,13,77.4,12.7,76.8,12.4z"/>
	<path d="M5,19.8c-1.1-0.5-2.1-1-3.2-1.5c0.3,0.7,0.7,1.3,1,2c0,0.1,0.1,0.1,0.1,0.1c0,0,0.1,0.1,0.1,0.1c0,0,0.1,0,0.1,0
		c0,0,0.1,0,0.1,0c0.1,0,0.1-0.1,0.2-0.1c0,0.1,0.1,0.2,0.1,0.2c-0.4,0.2-0.9,0.5-1.3,0.7c0-0.1-0.1-0.2-0.1-0.2
		c0.1,0,0.1-0.1,0.2-0.1c0,0,0.1,0,0.1-0.1c0,0,0-0.1,0.1-0.1c0,0,0-0.1,0-0.1c0,0,0-0.1-0.1-0.2C2,19.7,1.6,19,1.2,18.3
		c0-0.1-0.1-0.1-0.1-0.1c0,0-0.1,0-0.1-0.1c0,0-0.1,0-0.1,0c0,0-0.1,0-0.1,0c-0.1,0-0.1,0.1-0.2,0.1c0-0.1-0.1-0.2-0.1-0.2
		c0.4-0.2,0.8-0.4,1.1-0.6c1,0.4,2,0.9,3,1.4C4.3,18.2,4,17.6,3.7,17c0-0.1-0.1-0.1-0.1-0.1c0,0-0.1,0-0.1-0.1c0,0-0.1,0-0.1,0
		c0,0-0.1,0-0.1,0c-0.1,0-0.1,0.1-0.2,0.1c0-0.1-0.1-0.2-0.1-0.2c0.5-0.2,0.9-0.5,1.4-0.7c0,0.1,0.1,0.2,0.1,0.2
		c-0.1,0-0.1,0.1-0.2,0.1c0,0-0.1,0-0.1,0.1c0,0-0.1,0.1-0.1,0.1c0,0,0,0.1,0,0.1c0,0,0,0.1,0.1,0.2c0.4,0.9,0.9,1.8,1.3,2.7
		C5.3,19.7,5.1,19.7,5,19.8z"/>
	<path d="M11,15.1c0.1,0.3,0.2,0.5,0.2,0.8c0,0.2,0,0.5-0.1,0.7c-0.1,0.2-0.2,0.4-0.4,0.6c-0.2,0.2-0.4,0.3-0.7,0.4
		c-0.3,0.1-0.6,0.2-0.8,0.2c-0.3,0-0.5,0-0.7-0.1c-0.2-0.1-0.4-0.2-0.6-0.4c-0.2-0.2-0.3-0.4-0.4-0.7c-0.1-0.3-0.2-0.5-0.2-0.8
		c0-0.2,0-0.5,0.1-0.7c0.1-0.2,0.2-0.4,0.4-0.6c0.2-0.2,0.4-0.3,0.7-0.5c0.3-0.1,0.6-0.2,0.8-0.2c0.3,0,0.5,0,0.7,0.1
		c0.2,0.1,0.4,0.2,0.6,0.4C10.8,14.6,10.9,14.9,11,15.1z M8.4,16.2c0.1,0.2,0.2,0.4,0.3,0.6C8.8,17,8.9,17.1,9,17.2
		c0.1,0.1,0.3,0.1,0.4,0.2c0.1,0,0.3,0,0.4-0.1c0.2-0.1,0.3-0.2,0.4-0.3c0.1-0.1,0.1-0.2,0.2-0.4c0-0.2,0-0.3,0-0.5
		c0-0.2-0.1-0.4-0.2-0.6c-0.1-0.2-0.2-0.4-0.3-0.6c-0.1-0.2-0.2-0.3-0.3-0.4c-0.1-0.1-0.2-0.2-0.4-0.2c-0.1,0-0.3,0-0.5,0.1
		c-0.2,0.1-0.3,0.2-0.4,0.3c-0.1,0.1-0.1,0.2-0.2,0.4c0,0.2,0,0.3,0,0.5C8.2,15.8,8.3,16,8.4,16.2z"/>
	<path d="M16.4,12.5c0,0.1,0.1,0.3,0,0.4c0,0.2-0.1,0.3-0.2,0.4c-0.1,0.1-0.2,0.3-0.4,0.4c-0.2,0.1-0.4,0.2-0.7,0.3
		c-0.1,0-0.1,0-0.2,0.1c0.1,0.3,0.2,0.5,0.3,0.8c0,0.1,0,0.1,0.1,0.1c0,0,0.1,0.1,0.1,0.1c0,0,0.1,0,0.1,0c0,0,0.1,0,0.1,0
		c0.1,0,0.2-0.1,0.3-0.1c0,0.1,0.1,0.2,0.1,0.3c-0.6,0.2-1.3,0.4-1.9,0.6c0-0.1-0.1-0.2-0.1-0.3c0.1,0,0.1-0.1,0.2-0.1
		c0,0,0.1,0,0.1,0c0,0,0.1,0,0.1-0.1c0,0,0-0.1,0-0.1c0,0,0-0.1,0-0.2c-0.3-0.8-0.5-1.6-0.8-2.3c0-0.1,0-0.1-0.1-0.1
		c0,0-0.1-0.1-0.1-0.1c0,0-0.1,0-0.1,0c0,0-0.1,0-0.1,0c-0.1,0-0.2,0.1-0.2,0.1c0-0.1-0.1-0.2-0.1-0.3c0.6-0.2,1.1-0.4,1.7-0.6
		c0.3-0.1,0.5-0.1,0.7-0.1c0.2,0,0.4,0,0.5,0.1c0.2,0.1,0.3,0.1,0.4,0.2C16.3,12.2,16.4,12.4,16.4,12.5z M14.9,13.9c0,0,0.1,0,0.1,0
		c0.1,0,0.2-0.1,0.3-0.2c0.1-0.1,0.1-0.1,0.2-0.2c0-0.1,0.1-0.2,0-0.3c0-0.1,0-0.2-0.1-0.4c0-0.1-0.1-0.2-0.1-0.3
		c-0.1-0.1-0.1-0.2-0.2-0.2c-0.1,0-0.2-0.1-0.2-0.1c-0.1,0-0.2,0-0.3,0.1c-0.1,0-0.1,0-0.2,0.1C14.6,12.8,14.7,13.4,14.9,13.9z"/>
	<path d="M22.9,11.6c0.1,0.2,0.1,0.5,0.1,0.7c0,0.2-0.1,0.4-0.1,0.6c-0.1,0.2-0.2,0.3-0.3,0.5c-0.1,0.1-0.3,0.3-0.5,0.4
		c0.1,0.2,0.1,0.3,0.2,0.4c0.1,0.1,0.2,0.2,0.2,0.2c0.1,0.1,0.2,0.1,0.3,0.1c0.1,0,0.2,0,0.3,0c0,0,0.1,0,0.1,0c0,0.1,0,0.2,0.1,0.3
		c-0.1,0-0.2,0.1-0.4,0.1c-0.2,0-0.3,0-0.5,0c-0.2,0-0.3,0-0.5-0.1c-0.1-0.1-0.3-0.2-0.4-0.3c-0.1-0.1-0.2-0.3-0.3-0.5
		c-0.2,0-0.5,0-0.7-0.1c-0.2-0.1-0.4-0.1-0.5-0.3c-0.2-0.1-0.3-0.3-0.4-0.5c-0.1-0.2-0.2-0.4-0.3-0.6c-0.1-0.3-0.1-0.5-0.1-0.8
		c0-0.2,0.1-0.5,0.2-0.7c0.1-0.2,0.3-0.4,0.5-0.5c0.2-0.1,0.5-0.3,0.8-0.3c0.3-0.1,0.6-0.1,0.8-0.1c0.3,0,0.5,0.1,0.7,0.2
		c0.2,0.1,0.4,0.3,0.5,0.5C22.7,11.1,22.8,11.3,22.9,11.6z M20.1,12.3c0.1,0.2,0.1,0.4,0.2,0.6c0.1,0.2,0.2,0.3,0.3,0.4
		c0.1,0.1,0.2,0.2,0.4,0.2c0.1,0,0.3,0,0.4,0c0.2,0,0.3-0.1,0.4-0.2c0.1-0.1,0.2-0.2,0.2-0.4c0-0.1,0.1-0.3,0-0.5
		c0-0.2,0-0.4-0.1-0.6c-0.1-0.2-0.1-0.4-0.2-0.6c-0.1-0.2-0.2-0.3-0.3-0.4c-0.1-0.1-0.2-0.2-0.4-0.2c-0.1,0-0.3,0-0.5,0
		c-0.2,0-0.3,0.1-0.4,0.2c-0.1,0.1-0.2,0.2-0.2,0.4c0,0.1-0.1,0.3,0,0.5C20,11.8,20.1,12,20.1,12.3z"/>
	<path d="M25.8,12.6c0.1,0,0.1,0,0.2,0c0,0,0.1,0,0.1,0c0,0,0.1,0,0.1-0.1c0,0,0-0.1,0-0.1c0,0,0-0.1,0-0.2
		c-0.1-0.8-0.3-1.6-0.4-2.5c0-0.1,0-0.1-0.1-0.2c0,0,0-0.1-0.1-0.1c0,0-0.1,0-0.1,0c0,0-0.1,0-0.1,0c-0.1,0-0.2,0-0.2,0
		c0-0.1,0-0.2,0-0.3C25.8,9.2,26.4,9.1,27,9c0.5-0.1,0.9-0.1,1.2,0.1c0.3,0.1,0.4,0.3,0.5,0.6c0,0.1,0,0.3,0,0.4
		c0,0.1-0.1,0.2-0.1,0.3c-0.1,0.1-0.1,0.2-0.2,0.2c-0.1,0.1-0.2,0.1-0.3,0.2c0.3,0.3,0.5,0.6,0.8,0.9c0.1,0.1,0.1,0.1,0.2,0.2
		c0.1,0,0.1,0.1,0.1,0.1c0,0,0.1,0,0.1,0.1c0,0,0.1,0,0.1,0c0,0,0,0,0,0c0,0.1,0,0.2,0,0.3c-0.1,0-0.1,0-0.2,0c-0.2,0-0.3,0-0.4,0
		c-0.1,0-0.2,0-0.3,0c-0.1,0-0.2-0.1-0.3-0.1c-0.1-0.1-0.1-0.1-0.2-0.2c-0.3-0.3-0.5-0.7-0.8-1c-0.1,0-0.2,0-0.4,0.1
		c0.1,0.3,0.1,0.7,0.2,1c0,0.1,0,0.1,0,0.2c0,0,0,0.1,0.1,0.1c0,0,0.1,0,0.1,0c0,0,0.1,0,0.1,0c0.1,0,0.2,0,0.2,0c0,0.1,0,0.2,0,0.3
		c-0.6,0.1-1.2,0.2-1.8,0.3C25.8,12.8,25.8,12.7,25.8,12.6z M26.9,10.8c0.1,0,0.2,0,0.3,0c0.1,0,0.2-0.1,0.3-0.1
		c0.1,0,0.1-0.1,0.2-0.2c0-0.1,0.1-0.2,0.1-0.2c0-0.1,0-0.2,0-0.3c0-0.1,0-0.2-0.1-0.3c0-0.1-0.1-0.2-0.2-0.2s-0.1-0.1-0.2-0.1
		c-0.1,0-0.2,0-0.3,0c-0.1,0-0.2,0-0.3,0C26.7,9.8,26.8,10.3,26.9,10.8z"/>
	<path d="M33,12c-0.2,0-0.4,0-0.6,0c-0.2,0-0.3-0.1-0.4-0.1c-0.1-0.1-0.2-0.1-0.2-0.2c-0.1-0.1-0.1-0.2-0.1-0.2c0-0.1,0-0.2,0-0.2
		c0-0.1,0.1-0.1,0.1-0.2c0.1,0,0.1-0.1,0.2-0.1c0.1,0,0.1,0,0.2,0c0,0.1,0,0.3,0.1,0.4c0,0.1,0.1,0.2,0.2,0.3
		c0.1,0.1,0.2,0.1,0.2,0.1c0.1,0,0.2,0,0.3,0c0.1,0,0.2,0,0.3-0.1c0.1,0,0.1-0.1,0.2-0.1c0.1-0.1,0.1-0.1,0.1-0.2c0-0.1,0-0.1,0-0.2
		c0-0.1,0-0.2-0.1-0.2c0-0.1-0.1-0.1-0.2-0.2c-0.1-0.1-0.2-0.1-0.3-0.1c-0.1,0-0.3-0.1-0.4-0.1c-0.2-0.1-0.4-0.1-0.5-0.2
		c-0.1-0.1-0.3-0.1-0.3-0.2c-0.1-0.1-0.2-0.2-0.2-0.3c0-0.1-0.1-0.2-0.1-0.3c0-0.2,0-0.3,0.1-0.4c0.1-0.1,0.1-0.3,0.3-0.4
		c0.1-0.1,0.3-0.2,0.4-0.2c0.2-0.1,0.3-0.1,0.5-0.1c0.2,0,0.4,0,0.5,0c0.2,0,0.3,0.1,0.4,0.1c0.1,0,0.2,0.1,0.2,0.2
		c0.1,0.1,0.1,0.1,0.1,0.2c0,0.1,0,0.1,0,0.2C34,9,34,9,34,9.1c-0.1,0-0.1,0.1-0.2,0.1c-0.1,0-0.2,0-0.3,0.1c0-0.1,0-0.1,0-0.2
		c0-0.1-0.1-0.2-0.1-0.2c-0.1-0.1-0.1-0.1-0.2-0.2c-0.1,0-0.2-0.1-0.3,0c-0.1,0-0.1,0-0.2,0c-0.1,0-0.1,0.1-0.2,0.1
		c0,0-0.1,0.1-0.1,0.2c0,0.1,0,0.1,0,0.2c0,0.1,0,0.1,0.1,0.2c0,0.1,0.1,0.1,0.2,0.2c0.1,0.1,0.2,0.1,0.3,0.2
		c0.1,0.1,0.3,0.1,0.5,0.2c0.2,0.1,0.4,0.1,0.5,0.2c0.1,0.1,0.3,0.1,0.3,0.2c0.1,0.1,0.2,0.2,0.2,0.3c0,0.1,0.1,0.2,0.1,0.3
		c0,0.2,0,0.3-0.1,0.5c-0.1,0.1-0.2,0.3-0.3,0.4c-0.1,0.1-0.3,0.2-0.4,0.3C33.4,12,33.2,12,33,12z"/>
	<path d="M39,11.1c0,0.1,0,0.1,0,0.2c0,0,0,0.1,0.1,0.1c0,0,0.1,0,0.1,0c0,0,0.1,0,0.1,0c0.1,0,0.2,0,0.2,0c0,0.1,0,0.2,0,0.3
		c-0.6,0-1.2,0-1.9,0c0-0.1,0-0.2,0-0.3c0.1,0,0.2,0,0.2,0c0,0,0.1,0,0.1,0c0,0,0.1,0,0.1,0c0,0,0-0.1,0.1-0.1c0,0,0-0.1,0-0.2
		c0-0.9,0-1.8,0-2.7c-0.1,0-0.3,0-0.4,0c-0.1,0-0.2,0-0.2,0c-0.1,0-0.1,0-0.1,0.1c0,0-0.1,0.1-0.1,0.1c0,0,0,0.1,0,0.2
		c0,0.1,0,0.2,0,0.3c-0.1,0-0.3,0-0.4,0c0-0.3,0-0.7,0-1c1.2,0,2.3-0.1,3.5,0c0,0.3,0,0.7,0,1c-0.1,0-0.2,0-0.4,0c0-0.1,0-0.2,0-0.3
		c0-0.1,0-0.1,0-0.2c0,0,0-0.1-0.1-0.1c0,0-0.1-0.1-0.1-0.1c-0.1,0-0.1,0-0.2,0c-0.1,0-0.3,0-0.4,0C38.9,9.3,38.9,10.2,39,11.1z"/>
	<path d="M46.7,8.6c-0.1,0-0.2,0-0.2,0c0,0-0.1,0-0.1,0c0,0-0.1,0-0.1,0c0,0-0.1,0.1-0.1,0.1c0,0,0,0.1,0,0.2
		c-0.1,0.7-0.1,1.3-0.2,2c0,0.2-0.1,0.3-0.1,0.5c-0.1,0.1-0.2,0.2-0.3,0.3c-0.1,0.1-0.3,0.1-0.4,0.2c-0.2,0-0.4,0-0.6,0
		c-0.2,0-0.4-0.1-0.6-0.1c-0.2-0.1-0.3-0.1-0.5-0.2c-0.1-0.1-0.2-0.2-0.3-0.4c-0.1-0.2-0.1-0.3-0.1-0.5c0-0.7,0.1-1.3,0.1-2
		c0-0.1,0-0.1,0-0.2c0,0,0-0.1-0.1-0.1c0,0-0.1,0-0.1,0c0,0-0.1,0-0.1,0c-0.1,0-0.2,0-0.2,0c0-0.1,0-0.2,0-0.3
		c0.6,0,1.3,0.1,1.9,0.1c0,0.1,0,0.2,0,0.3c-0.1,0-0.2,0-0.2,0c0,0-0.1,0-0.1,0c0,0-0.1,0-0.1,0c0,0-0.1,0.1-0.1,0.1
		c0,0,0,0.1,0,0.2c0,0.7-0.1,1.3-0.1,2c0,0.1,0,0.3,0,0.4c0,0.1,0.1,0.2,0.1,0.2c0.1,0.1,0.1,0.1,0.2,0.1c0.1,0,0.2,0.1,0.3,0.1
		c0.1,0,0.2,0,0.3,0c0.1,0,0.2-0.1,0.3-0.1c0.1-0.1,0.1-0.1,0.2-0.2c0-0.1,0.1-0.2,0.1-0.3c0.1-0.7,0.1-1.3,0.2-2c0-0.1,0-0.1,0-0.2
		c0,0,0-0.1-0.1-0.1c0,0-0.1,0-0.1-0.1c0,0-0.1,0-0.1,0c-0.1,0-0.2,0-0.2,0c0-0.1,0-0.2,0-0.3c0.5,0,1,0.1,1.5,0.1
		C46.7,8.5,46.7,8.6,46.7,8.6z"/>
	<path d="M52.9,9.5c-0.1,0-0.2,0-0.3,0c0,0,0,0-0.1,0c0,0,0,0-0.1,0c0,0-0.1,0.1-0.1,0.1c0,0-0.1,0.1-0.1,0.2
		c-0.5,0.9-1.1,1.9-1.6,2.8c-0.2,0-0.4-0.1-0.5-0.1c-0.2-1.1-0.5-2.2-0.7-3.3c0-0.1,0-0.1-0.1-0.1c0,0-0.1-0.1-0.1-0.1
		c0,0-0.1,0-0.1-0.1c0,0-0.1,0-0.1,0c0,0-0.1,0-0.1,0c0-0.1,0-0.2,0-0.3c0.6,0.1,1.2,0.2,1.8,0.2c0,0.1,0,0.2,0,0.3
		c-0.1,0-0.2,0-0.3,0c0,0-0.1,0-0.1,0c0,0-0.1,0-0.1,0c0,0,0,0-0.1,0c0,0,0,0,0,0.1c0,0,0,0.1,0,0.1c0,0,0,0.1,0,0.1
		c0.1,0.5,0.2,1.1,0.3,1.6c0,0,0,0.1,0,0.1c0,0.1,0,0.1,0,0.2c0,0.1,0,0.1,0,0.2c0,0.1,0,0.1,0,0.2c0,0,0-0.1,0-0.1
		c0,0,0-0.1,0.1-0.2c0-0.1,0.1-0.1,0.1-0.2c0-0.1,0.1-0.1,0.1-0.1c0.3-0.5,0.5-1,0.8-1.5c0,0,0,0,0-0.1c0,0,0,0,0-0.1c0,0,0,0,0-0.1
		c0,0,0,0,0-0.1c0-0.1,0-0.1,0-0.1c0,0-0.1-0.1-0.2-0.1c-0.1,0-0.2,0-0.3,0c0-0.1,0-0.2,0-0.3c0.5,0.1,1,0.2,1.4,0.2
		C52.9,9.3,52.9,9.4,52.9,9.5z"/>
	<path d="M58.5,10.4c0.1,0.7,0.2,1.4,0.3,2.1c0,0.1,0,0.2,0,0.3c0,0.1,0,0.2,0,0.2c0,0.1,0,0.2,0,0.2c0,0.1,0,0.1,0,0.2
		c0-0.1,0.1-0.1,0.1-0.2C59,13.1,59,13,59,13c0-0.1,0.1-0.2,0.1-0.2c0-0.1,0.1-0.2,0.1-0.2c0.2-0.3,0.4-0.7,0.6-1c0,0,0,0,0-0.1
		c0,0,0,0,0-0.1c0,0,0,0,0-0.1c0,0,0,0,0-0.1c0-0.1,0-0.2,0-0.2c0-0.1-0.1-0.1-0.3-0.1c0,0-0.1,0-0.1,0c0-0.1,0-0.2,0.1-0.3
		c0.5,0.1,1,0.3,1.4,0.4c0,0.1,0,0.2-0.1,0.3c0,0-0.1,0-0.1,0c-0.1,0-0.1,0-0.1,0c0,0-0.1,0-0.1,0c0,0-0.1,0.1-0.1,0.1
		c0,0-0.1,0.1-0.1,0.2c-0.5,0.9-1.1,1.8-1.6,2.7c-0.2-0.1-0.4-0.1-0.6-0.2c-0.1-0.9-0.2-1.7-0.3-2.6c-0.4,0.7-0.9,1.4-1.3,2.2
		c-0.2,0-0.4-0.1-0.7-0.1c-0.1-1.1-0.2-2.2-0.3-3.3c0-0.1,0-0.1,0-0.1c0,0,0-0.1-0.1-0.1c0,0-0.1,0-0.1-0.1c0,0-0.1,0-0.1,0
		c0,0,0,0-0.1,0c0-0.1,0-0.2,0.1-0.3c0.6,0.1,1.2,0.3,1.9,0.4c0,0.1,0,0.2-0.1,0.3c0,0-0.1,0-0.1,0c-0.1,0-0.2,0-0.3,0
		c-0.1,0-0.1,0.1-0.1,0.2c0,0,0,0.1,0,0.1c0,0.1,0,0.1,0,0.2c0,0.4,0.1,0.8,0.1,1.2c0,0.1,0,0.1,0,0.2c0,0.1,0,0.2,0,0.2
		c0,0.1,0,0.2,0,0.2c0,0.1,0,0.1,0,0.2c0-0.1,0.1-0.2,0.1-0.3c0-0.1,0.1-0.2,0.2-0.3c0.4-0.7,0.8-1.3,1.2-2
		C58.2,10.3,58.4,10.3,58.5,10.4z"/>
	<path d="M65.9,13C65.9,13,65.9,12.9,65.9,13c0-0.1,0-0.1,0-0.1c0,0-0.1,0-0.1-0.1c0,0-0.1,0-0.1,0c0,0,0,0,0,0
		c0-0.1,0.1-0.2,0.1-0.3c0.4,0.1,0.8,0.3,1.3,0.4c0,0.1-0.1,0.2-0.1,0.3c0,0,0,0,0,0c-0.1,0-0.1,0-0.1,0c0,0-0.1,0-0.1,0
		c-0.1,0-0.1,0-0.2,0.1c-0.1,0-0.1,0.1-0.2,0.1c-0.4,0.2-0.7,0.5-1.1,0.7c0.2,0.6,0.3,1.1,0.5,1.7c0,0.1,0.1,0.2,0.1,0.3
		c0.1,0.1,0.1,0.1,0.2,0.1c0,0,0,0,0.1,0c0,0.1-0.1,0.2-0.1,0.3c-0.6-0.2-1.1-0.4-1.7-0.6c0-0.1,0.1-0.2,0.1-0.3c0,0,0,0,0,0
		c0.2,0.1,0.3,0.1,0.4-0.1c0,0,0,0,0-0.1c0,0,0,0,0-0.1c0,0,0-0.1,0-0.1c0,0,0-0.1,0-0.2c-0.1-0.3-0.2-0.6-0.3-0.8
		c-0.3,0.2-0.5,0.3-0.8,0.5c0,0-0.1,0.1-0.1,0.1c0,0-0.1,0.1-0.1,0.1c0,0.1,0,0.1,0,0.1c0,0,0.1,0.1,0.2,0.1c0,0,0,0,0,0
		c0,0.1-0.1,0.2-0.1,0.3c-0.4-0.1-0.9-0.3-1.3-0.4c0-0.1,0.1-0.2,0.1-0.3c0,0,0,0,0,0c0.1,0,0.1,0,0.2,0c0.1,0,0.1,0,0.2,0
		c0.1,0,0.1,0,0.2-0.1c0.1,0,0.1-0.1,0.2-0.1c0.4-0.3,0.9-0.5,1.3-0.8c-0.2-0.5-0.3-1-0.5-1.5c0-0.1,0-0.1-0.1-0.1
		c0,0,0-0.1-0.1-0.1c0,0-0.1-0.1-0.1-0.1c0,0-0.1,0-0.2-0.1c0,0,0,0-0.1,0c0-0.1,0.1-0.2,0.1-0.3c0.6,0.2,1.2,0.4,1.8,0.6
		c0,0.1-0.1,0.2-0.1,0.3c0,0,0,0,0,0c-0.1,0-0.1,0-0.2,0c0,0-0.1,0-0.1,0c0,0-0.1,0-0.1,0c0,0,0,0,0,0c0,0,0,0.1,0,0.1
		c0,0.1,0,0.1,0,0.2c0.1,0.3,0.2,0.5,0.2,0.8c0.2-0.1,0.4-0.3,0.7-0.4c0,0,0.1-0.1,0.1-0.1C65.9,13.1,65.9,13,65.9,13z"/>
	<path d="M68.8,17.5c0-0.1,0.1-0.2,0.1-0.3c0.1,0,0.2,0.1,0.2,0.1c0,0,0.1,0,0.1,0c0,0,0.1,0,0.1,0c0,0,0.1,0,0.1-0.1
		c0,0,0.1-0.1,0.1-0.1c0.1-0.2,0.2-0.4,0.3-0.7c-0.1-0.7-0.2-1.4-0.3-2.1c0-0.1,0-0.1,0-0.1c0,0,0-0.1,0-0.1c0,0,0-0.1-0.1-0.1
		c0,0-0.1,0-0.1-0.1c0,0,0,0-0.1,0c0-0.1,0.1-0.2,0.1-0.3c0.6,0.2,1.2,0.5,1.8,0.7c0,0.1-0.1,0.2-0.1,0.2c0,0-0.1,0-0.1,0
		c-0.1,0-0.2-0.1-0.3,0c-0.1,0-0.1,0.1-0.1,0.1c0,0,0,0.1,0,0.1c0,0.1,0,0.1,0,0.2c0,0.3,0.1,0.6,0.1,0.9c0,0.1,0,0.2,0,0.3
		c0,0.1,0,0.2,0,0.3c0.1-0.1,0.2-0.1,0.2-0.2c0.1-0.1,0.2-0.2,0.3-0.2c0.2-0.1,0.4-0.3,0.5-0.4c0.1-0.1,0.1-0.1,0.1-0.1
		c0,0,0.1-0.1,0.1-0.1c0-0.1,0-0.2,0-0.2c0-0.1-0.1-0.1-0.2-0.2c0,0-0.1,0-0.1-0.1c0-0.1,0.1-0.2,0.1-0.2c0.5,0.2,0.9,0.4,1.4,0.6
		c0,0.1-0.1,0.2-0.1,0.2c0,0-0.1,0-0.1,0c0,0-0.1,0-0.1,0c0,0-0.1,0-0.1,0c0,0-0.1,0-0.1,0.1c-0.1,0-0.1,0.1-0.2,0.1
		c-0.5,0.4-1,0.8-1.6,1.2c-0.1,0.2-0.2,0.4-0.3,0.6c0,0.1,0,0.1,0,0.2c0,0,0,0.1,0,0.1c0,0,0,0.1,0.1,0.1c0,0,0.1,0,0.1,0.1
		c0.1,0,0.2,0.1,0.2,0.1c0,0.1-0.1,0.2-0.1,0.2C70.1,18.1,69.4,17.8,68.8,17.5z"/>
	<path d="M78,18.2c-1.1,0.6-2.2,1.1-3.3,1.7c0.4,0.2,0.7,0.4,1.1,0.6c0.1,0.1,0.2,0.1,0.3,0.1c0.1,0,0.1,0,0.2,0
		c0.1,0,0.1-0.1,0.2-0.1c0,0,0.1-0.1,0.1-0.1c0-0.1,0.1-0.1,0.1-0.2c0.1,0.1,0.2,0.1,0.4,0.2c-0.2,0.3-0.4,0.6-0.5,0.9
		c-0.9-0.5-1.9-1-2.8-1.5c0-0.1,0.1-0.2,0.1-0.2c1.1-0.6,2.2-1.2,3.3-1.8c-0.3-0.2-0.7-0.4-1-0.5c-0.1,0-0.2-0.1-0.2-0.1
		c-0.1,0-0.1,0-0.2,0c0,0-0.1,0.1-0.1,0.1c0,0-0.1,0.1-0.1,0.2c-0.1,0.1-0.1,0.2-0.2,0.2c-0.1-0.1-0.2-0.1-0.4-0.2
		c0.2-0.3,0.3-0.6,0.5-0.9c0.9,0.5,1.8,0.9,2.7,1.4C78.1,18.1,78.1,18.1,78,18.2z"/>
</g>
</svg>
